<?xml version="1.0" encoding="UTF-8" standalone="no"?>
<!-- Created with Inkscape (http://www.inkscape.org/) -->

<svg
   xmlns:dc="http://purl.org/dc/elements/1.1/"
   xmlns:cc="http://creativecommons.org/ns#"
   xmlns:rdf="http://www.w3.org/1999/02/22-rdf-syntax-ns#"
   xmlns:svg="http://www.w3.org/2000/svg"
   xmlns="http://www.w3.org/2000/svg"
   xmlns:sodipodi="http://sodipodi.sourceforge.net/DTD/sodipodi-0.dtd"
   xmlns:inkscape="http://www.inkscape.org/namespaces/inkscape"
   id="svg3410"
   version="1.1"
   inkscape:version="0.91 r13725"
   width="120"
   height="110"
   viewBox="0 0 120 110"
   sodipodi:docname="hair.svg">
  <metadata
     id="metadata3416">
    <rdf:RDF>
      <cc:Work
         rdf:about="">
        <dc:format>image/svg+xml</dc:format>
        <dc:type
           rdf:resource="http://purl.org/dc/dcmitype/StillImage" />
        <dc:title></dc:title>
      </cc:Work>
    </rdf:RDF>
  </metadata>
  <defs
     id="defs3414" />
  <sodipodi:namedview
     pagecolor="#ffffff"
     bordercolor="#666666"
     borderopacity="1"
     objecttolerance="10"
     gridtolerance="10"
     guidetolerance="10"
     inkscape:pageopacity="0"
     inkscape:pageshadow="2"
     inkscape:window-width="1360"
     inkscape:window-height="692"
     id="namedview3412"
     showgrid="false"
     inkscape:snap-global="true"
     inkscape:snap-intersection-paths="true"
     inkscape:zoom="2.0794667"
     inkscape:cx="168.71646"
     inkscape:cy="89.191201"
     inkscape:window-x="0"
     inkscape:window-y="24"
     inkscape:window-maximized="1"
     inkscape:current-layer="svg3410" />
  <path
     style="fill:#ecd88a;fill-opacity:1;fill-rule:evenodd;stroke:#000000;stroke-width:0;stroke-linecap:butt;stroke-linejoin:miter;stroke-miterlimit:4;stroke-dasharray:none;stroke-opacity:1"
     d="M 8.2868065,106.69402 5.559707,92.003571 4.3476613,80.420715 3.1356156,69.402876 1.9235702,55.559951 l 0,-10.17031 0.9090354,-8.192751 1.2120458,-5.932685 2.1210746,-6.497702 2.4240914,-3.390104 3.6361356,-4.802646 5.151198,-5.367666 6.363236,-3.3901041 7.8783,-2.2600693 4.84818,0.2825068 6.363238,-2.8250837 9.393353,-1.6950549 12.120455,0 12.423459,1.6950549 8.484329,2.8250837 9.393349,2.8250895 7.57528,3.3901051 6.66626,3.955123 3.63612,3.672612 4.24217,5.650173 2.42409,6.780209 0.30301,6.780209 1.21204,8.757769 -0.60602,6.780208 -0.90903,11.865366 -1.51506,18.080555 -1.51506,9.887803 -1.21205,9.040288 -1.51505,6.21518 -3.63614,-2.82509 -6.06021,-2.82508 -4.242183,-4.23763 -2.424084,2.54259 -3.636135,-2.54259 -5.454192,7.34522 0.90903,-3.39009 -2.424093,-1.69505 1.21205,-5.367673 -2.121079,-0.847526 -3.636136,-0.565024 -2.121088,-0.847525 -3.333122,-4.237629 24.240912,-1.130039 0,0.282512 3.93913,-10.45282 3.33314,-9.32279 0.60601,-8.475257 -0.60601,-6.215195 -0.30302,-6.4977 -2.12108,3.107597 -1.81805,-5.650174 -2.4241,-3.955118 -2.424089,3.10759 -4.545174,-6.497699 -5.757214,-3.955119 1.212041,5.085153 0,1.695055 -5.151188,0.282507 -6.363241,-0.282507 -8.484311,-1.412542 -7.878302,-3.107597 -4.242162,-3.390104 -1.212046,1.130035 0.303016,5.367666 -2.727106,0 -6.666248,-2.825089 -6.363237,-3.390104 -6.363242,-6.497702 -3.939147,-4.520137 -5.757217,2.260068 -9.393354,8.757771 -3.333126,11.300345 0,11.01784 0,10.735333 0.909035,8.475257 3.636137,9.32279 5.757219,2.542577 7.272271,1.695055 6.666252,0 3.939148,0.282503 7.575281,0.847527 -6.060228,3.390109 -0.909029,3.955121 -1.212045,3.390109 0.606021,1.97756 -2.121082,-1.97756 -2.727101,0.28251 -1.818071,2.54258 -1.818066,2.26007 -4.848179,0 -4.242163,-1.69506 -3.636138,-2.54257 -3.33312,2.54257 -1.212052,3.10759 -2.121074,1.97757 z"
     id="path4231"
     inkscape:connector-curvature="0" />
  <path
     style="fill:#ecd88a;fill-opacity:1;stroke-width:0;stroke-miterlimit:4;stroke-dasharray:none"
     id="path4273"
     d="m 390.52354,-149.37956 c 2.26634,1.58063 4.96836,2.41665 7.54422,3.35019 4.56271,1.59904 9.27662,2.66892 14.02291,3.54852 2.81417,0.47184 5.59716,1.11699 8.41678,1.55548 1.63451,0.28099 2.12711,1.03053 2.40296,2.58183 0.004,0.71507 0.50571,1.41528 0.50235,2.12347 -10e-4,0.2566 0.0364,0.61188 -0.18096,0.74825 -6.58411,4.13078 -4.57458,4.02442 -8.68386,3.59994 -4.43422,-0.59233 -8.77276,-1.72525 -13.06538,-2.95985 -2.84942,-0.91176 -5.72714,-1.76162 -8.53213,-2.80444 -1.16309,-0.28361 -3.01581,-1.3847 -4.20941,-0.74004 -0.13708,0.074 -0.23454,0.20514 -0.35181,0.30771 1.92668,-1.0983 3.85337,-2.19661 5.78006,-3.29491 -0.0958,0.12013 -0.52452,0.52388 -0.26144,0.72214 0.25475,0.19197 1.03549,0.33868 1.21802,0.38474 2.57363,0.47948 5.25391,0.48479 7.79831,-0.18919 0.5184,-0.13731 1.01654,-0.34207 1.5248,-0.5131 0.45763,-0.19476 0.93004,-0.35792 1.3729,-0.58427 0.39116,-0.19992 1.50928,-0.89872 1.1222,-0.69099 -1.70398,0.91445 -3.3438,1.94919 -5.07449,2.81203 -0.2643,0.13177 0.44553,-0.38928 0.64737,-0.60487 0.42608,-0.45511 0.47655,-0.6077 0.77138,-1.12337 0.12941,-0.34937 0.31084,-0.62692 0.20559,-1.00985 -0.29733,-1.08179 -1.87208,-1.52718 -2.73519,-1.86187 -4.22514,-1.20654 -8.62925,-1.60714 -12.9955,-1.9309 -2.55151,0.0606 -5.89988,-0.79759 -8.29865,0.2837 1.89384,-1.06057 3.78768,-2.12114 5.68151,-3.18171 -0.27442,0.19389 -0.61257,0.49132 -0.5867,0.87564 0.0187,0.27776 0.3248,0.51359 0.47964,0.67896 0.21172,0.11294 0.41276,0.24873 0.63517,0.33881 2.53563,1.02702 6.43603,1.11476 9.12848,1.29125 5.50057,0.50876 11.01803,0.84694 16.51321,1.41089 2.20817,0.26785 4.45634,0.72873 6.28637,2.07591 0.30971,0.228 0.58296,0.50178 0.87444,0.75266 1.55844,1.50323 2.92702,3.19665 3.78941,5.18995 0.54018,1.50972 1.3651,3.02713 1.30567,4.66639 -0.67156,2.72995 -4.29239,3.07519 -6.72943,4.2383 -0.17951,0.0857 -1.03654,-0.66627 -1.19139,-0.77295 -0.11879,-0.0399 -0.23108,-0.12072 -0.35636,-0.11955 -0.20589,0.002 -0.65238,0.49748 -0.47161,0.39891 1.97657,-1.07777 3.88144,-2.28378 5.8586,-3.36047 0.10762,-0.0586 -0.16995,0.18164 -0.22352,0.29184 -0.0589,0.12111 -0.0717,0.25959 -0.10761,0.38938 -0.10822,2.76994 1.68801,-0.007 -6.3541,3.49922 -0.095,0.0414 0.0357,-0.20887 0.0155,-0.31054 -0.16325,-0.82515 -0.35305,-0.97062 -0.81284,-1.76016 -3.89959,-4.44794 -9.93249,-5.87387 -15.42152,-7.31681 -4.10278,-0.97362 -8.26668,-1.6583 -12.4464,-2.19871 -2.5578,-0.33071 -5.08287,-0.60572 -7.6602,-0.62243 -0.45456,0.078 -0.91916,0.11114 -1.36369,0.23407 -0.31891,0.0882 -0.60713,0.26325 -0.9107,0.39487 1.81678,-0.99949 3.60077,-2.06105 5.45034,-2.99848 0.17636,-0.0894 -0.29106,0.27314 -0.39947,0.4385 -0.28718,0.43807 -0.25762,0.62989 -0.3262,1.12867 -0.0276,1.46627 0.96866,1.99053 2.17878,2.54689 2.07637,0.6594 4.30658,0.61425 6.46384,0.65828 1.76171,0.0145 0.89974,0.0119 2.58589,0.009 0,0 -5.64157,4.0942 -5.64157,4.0942 l 0,0 c -1.66901,-0.0212 -0.81304,-0.009 -2.56792,-0.0366 -2.25646,-0.0557 -4.61575,0.0218 -6.74188,-0.84181 -1.32923,-0.71408 -2.59234,-1.60049 -2.60788,-3.25469 0.004,-0.62378 -0.0479,-0.86519 0.16712,-1.46526 1.21225,-3.38352 5.89858,-4.71064 9.26184,-4.90755 6.67267,0.4566 13.25684,1.90914 19.80075,3.21123 5.74714,1.46145 12.03176,2.87659 16.20163,7.42165 2.63892,3.97781 1.10156,2.78434 -5.19789,5.89518 -0.20032,0.0989 0.21319,-1.06726 -0.0568,-0.66785 0.0865,-3.41361 4.81271,-6.07621 7.68415,-4.59617 0.13907,0.0879 0.46827,0.32264 0.65922,0.3556 0.0876,0.0151 0.34131,-0.0762 0.26503,-0.0305 -1.95999,1.17474 -3.97893,2.24941 -5.93582,3.42931 -0.0895,0.0539 0.21653,0.006 0.31114,-0.0379 0.0949,-0.0444 0.15268,-0.14345 0.22903,-0.21517 0.0498,-0.1345 0.13761,-0.26056 0.14952,-0.40351 0.0937,-1.12535 -0.85432,-2.88271 -1.20344,-3.94039 -0.78028,-1.90368 -2.05033,-3.55342 -3.58017,-4.9247 -2.02862,-1.62947 -4.20527,-2.30355 -6.78775,-2.59489 -5.4422,-0.68034 -10.91624,-1.07981 -16.38641,-1.45787 -2.62377,-0.1471 -7.21415,-0.18856 -9.61488,-1.35324 -0.27775,-0.13474 -0.5202,-0.33258 -0.7803,-0.49887 -0.35362,-0.40036 -0.64011,-0.629 -0.79065,-1.16053 -0.79371,-2.80231 8.15645,-6.75839 6.87226,-5.22892 2.6899,-0.58395 5.49449,0.1081 8.20656,0.12889 4.45251,0.3827 8.94561,0.79467 13.26519,1.99439 1.30804,0.53616 3.43245,1.34955 3.37323,3.1342 -0.008,0.23455 -0.10944,0.45642 -0.16416,0.68464 -1.48556,3.40193 -4.89933,4.24408 -8.20367,6.20822 -0.37165,0.22091 -0.75627,0.42182 -1.15189,0.5962 -0.45292,0.19964 -0.92626,0.3493 -1.3894,0.52396 -3.2596,0.90719 -6.33744,1.14888 -9.67115,0.44723 -0.32888,-0.11238 -0.67704,-0.17923 -0.98666,-0.33713 -3.34914,-1.70794 3.45927,-7.32708 5.61044,-5.89053 1.65286,-0.39974 3.24618,0.50007 4.79066,0.98412 2.77098,0.99816 5.54574,1.99315 8.35916,2.86599 4.25993,1.25975 8.59435,2.41731 13.03668,2.77373 3.70171,-0.10813 2.02525,-0.35006 -3.39679,3.28423 -0.14363,0.0963 0.40477,-0.0838 0.45491,-0.24925 0.0829,-0.27372 -0.53042,-1.79043 -0.54612,-2.15953 -0.1953,-1.34632 -0.5288,-1.6137 -1.89704,-1.86827 -2.74633,-0.53204 -5.46479,-1.19958 -8.21535,-1.7123 -4.7578,-0.96531 -9.48588,-2.08106 -14.09686,-3.61557 -2.71456,-0.90596 -5.48995,-1.78694 -7.91705,-3.34317 0,0 6.00479,-3.81755 6.00479,-3.81755 z"
     inkscape:connector-curvature="0" />
  <path
     style="fill:#ecd88a;fill-opacity:1;stroke-width:0;stroke-miterlimit:4;stroke-dasharray:none"
     id="path4275"
     d="m 288.13516,-154.68529 c 3.94611,2.14183 8.32753,3.07344 12.70832,3.82974 6.53031,0.92616 13.13554,1.07254 19.72044,1.13976 3.33022,0.0214 6.68186,-0.19204 9.96605,0.45706 1.56708,0.41401 3.19389,0.45204 4.78814,0.67674 0.47455,0.0669 1.76127,0.34725 2.25574,0.45199 0.94712,0.16117 1.72126,0.62488 2.49949,1.15078 0,0 -5.94042,3.811 -5.94042,3.811 l 0,0 c -0.72195,-0.45441 -1.45143,-0.82099 -2.30694,-0.96615 -2.32644,-0.49188 -4.70102,-0.62591 -7.02822,-1.11854 -3.17832,-0.55222 -6.40738,-0.49135 -9.62314,-0.56186 -6.58366,-0.16638 -13.18537,-0.35531 -19.71682,-1.2649 -4.55815,-0.76483 -9.09718,-1.75237 -13.29583,-3.75624 0,0 5.97319,-3.84938 5.97319,-3.84938 z"
     inkscape:connector-curvature="0" />
</svg>
